<svg xmlns="http://www.w3.org/2000/svg" xmlns:xlink="http://www.w3.org/1999/xlink" width="159" zoomAndPan="magnify" viewBox="0 0 119.25 119.249998" height="159" preserveAspectRatio="xMidYMid meet" version="1.0"><defs><clipPath id="aeeef8bb3c"><path d="M 0 0 L 118.058594 0 L 118.058594 118.058594 L 0 118.058594 Z M 0 0 " clip-rule="nonzero"/></clipPath><clipPath id="e0a2df36a1"><path d="M 59.027344 0 C 26.429688 0 0 26.429688 0 59.027344 C 0 91.628906 26.429688 118.058594 59.027344 118.058594 C 91.628906 118.058594 118.058594 91.628906 118.058594 59.027344 C 118.058594 26.429688 91.628906 0 59.027344 0 Z M 59.027344 0 " clip-rule="nonzero"/></clipPath><clipPath id="51b991db97"><path d="M 4 76 L 114.742188 76 L 114.742188 117.757812 L 4 117.757812 Z M 4 76 " clip-rule="nonzero"/></clipPath></defs><g clip-path="url(#aeeef8bb3c)"><g clip-path="url(#e0a2df36a1)"><path fill="#4a6dff" d="M 0 0 L 118.058594 0 L 118.058594 118.058594 L 0 118.058594 Z M 0 0 " fill-opacity="1" fill-rule="nonzero"/></g></g><path fill="#dddddd" d="M 112.203125 83.210938 L 106.996094 83.210938 C 106.367188 83.210938 105.78125 82.882812 105.460938 82.347656 L 84.164062 46.859375 C 83.671875 46.035156 83.921875 44.964844 84.730469 44.4375 L 99.8125 34.679688 C 100.644531 34.148438 101.746094 34.382812 102.285156 35.207031 C 102.820312 36.039062 102.582031 37.140625 101.753906 37.683594 L 88.121094 46.5 L 108.007812 79.636719 L 112.203125 79.636719 C 113.191406 79.636719 113.988281 80.4375 113.988281 81.425781 C 113.988281 82.414062 113.191406 83.210938 112.203125 83.210938 " fill-opacity="1" fill-rule="nonzero"/><path fill="#dddddd" d="M 107.59375 83.210938 L 90.136719 83.210938 C 89.632812 83.210938 89.152344 83 88.8125 82.628906 L 67.675781 59.304688 C 65.792969 57.230469 62.546875 57.042969 60.4375 58.886719 L 59.511719 59.699219 C 54.136719 64.398438 46.257812 64.492188 40.78125 59.925781 C 38.726562 58.214844 38.4375 55.140625 40.144531 53.082031 L 51.230469 39.660156 C 53.996094 36.3125 58.074219 34.390625 62.414062 34.390625 C 64.566406 34.390625 66.726562 34.886719 68.667969 35.8125 L 86.46875 44.328125 C 87.363281 44.75 87.742188 45.820312 87.316406 46.710938 C 86.886719 47.601562 85.824219 47.976562 84.933594 47.554688 L 67.128906 39.039062 C 65.664062 38.339844 64.035156 37.96875 62.414062 37.96875 C 59.140625 37.96875 56.070312 39.414062 53.984375 41.933594 L 42.898438 55.351562 C 42.449219 55.90625 42.523438 56.71875 43.070312 57.179688 C 47.195312 60.613281 53.117188 60.546875 57.152344 57.011719 L 58.082031 56.195312 C 61.652344 53.074219 67.140625 53.394531 70.324219 56.90625 L 90.925781 79.636719 L 107.59375 79.636719 C 108.582031 79.636719 109.386719 80.4375 109.386719 81.425781 C 109.386719 82.414062 108.582031 83.210938 107.59375 83.210938 " fill-opacity="1" fill-rule="nonzero"/><path fill="#dddddd" d="M 64.453125 102.734375 L 58.59375 102.734375 C 56.210938 102.734375 53.882812 101.90625 52.035156 100.410156 L 26.050781 80.175781 C 25.589844 79.820312 25.335938 79.261719 25.363281 78.683594 L 27.136719 40.535156 C 27.179688 39.578125 27.96875 38.828125 28.921875 38.828125 L 52.878906 38.828125 C 53.863281 38.828125 54.664062 39.628906 54.664062 40.617188 C 54.664062 41.605469 53.863281 42.402344 52.878906 42.402344 L 30.628906 42.402344 L 28.980469 77.917969 L 54.261719 97.609375 C 55.5 98.617188 57.03125 99.15625 58.59375 99.15625 L 62.238281 99.15625 L 52.417969 87.929688 C 51.765625 87.1875 51.839844 86.054688 52.585938 85.40625 C 53.328125 84.761719 54.449219 84.828125 55.109375 85.570312 L 66.386719 98.46875 C 67.054688 99.226562 67.214844 100.304688 66.796875 101.222656 C 66.382812 102.140625 65.460938 102.734375 64.453125 102.734375 " fill-opacity="1" fill-rule="nonzero"/><path fill="#dddddd" d="M 65.296875 101.847656 C 64.511719 101.847656 63.792969 101.328125 63.574219 100.535156 C 63.308594 99.578125 63.867188 98.601562 64.820312 98.335938 L 73.832031 95.832031 L 75.09375 94.402344 L 73.710938 95.539062 L 63.027344 82.566406 C 62.402344 81.804688 62.511719 80.675781 63.273438 80.050781 C 64.035156 79.417969 65.160156 79.523438 65.789062 80.292969 L 76.476562 93.265625 C 77.25 94.207031 77.527344 95.425781 77.234375 96.613281 C 76.9375 97.792969 76.121094 98.742188 75 99.210938 L 65.773438 101.777344 C 65.613281 101.820312 65.449219 101.847656 65.296875 101.847656 " fill-opacity="1" fill-rule="nonzero"/><path fill="#dddddd" d="M 75.941406 97.40625 C 75.222656 97.40625 74.539062 96.96875 74.265625 96.253906 C 73.921875 95.332031 74.382812 94.296875 75.3125 93.949219 L 81.496094 91.621094 C 81.882812 91.347656 82.144531 90.945312 82.242188 90.476562 C 82.347656 89.964844 82.234375 89.445312 81.929688 89.019531 L 72.71875 76.265625 C 72.140625 75.460938 72.324219 74.34375 73.121094 73.765625 C 73.929688 73.1875 75.039062 73.367188 75.617188 74.167969 L 84.832031 86.925781 C 85.71875 88.15625 86.050781 89.707031 85.742188 91.191406 C 85.441406 92.679688 84.519531 93.980469 83.222656 94.757812 C 83.132812 94.8125 83.03125 94.859375 82.929688 94.902344 L 76.570312 97.296875 C 76.367188 97.371094 76.152344 97.40625 75.941406 97.40625 " fill-opacity="1" fill-rule="nonzero"/><path fill="#dddddd" d="M 83.921875 92.972656 C 83.125 92.972656 82.394531 92.433594 82.195312 91.621094 C 81.957031 90.664062 82.53125 89.691406 83.492188 89.453125 L 89.203125 88.019531 C 91.804688 87.058594 93.671875 84.398438 93.671875 81.441406 C 93.671875 80.457031 94.46875 79.648438 95.460938 79.648438 C 96.445312 79.648438 97.246094 80.4375 97.246094 81.425781 C 97.246094 85.898438 94.433594 89.910156 90.253906 91.4375 L 84.359375 92.917969 C 84.21875 92.957031 84.070312 92.972656 83.921875 92.972656 " fill-opacity="1" fill-rule="nonzero"/><path fill="#dddddd" d="M 27.148438 80.554688 L 15.613281 80.554688 C 14.628906 80.554688 13.820312 79.753906 13.820312 78.765625 C 13.820312 77.777344 14.628906 76.976562 15.613281 76.976562 L 25.441406 76.976562 L 27.117188 40.921875 L 25.941406 37.96875 L 7.050781 37.96875 C 6.066406 37.96875 5.257812 37.167969 5.257812 36.183594 C 5.257812 35.191406 6.066406 34.390625 7.050781 34.390625 L 27.148438 34.390625 C 27.878906 34.390625 28.535156 34.835938 28.804688 35.515625 L 30.582031 39.949219 C 30.675781 40.1875 30.71875 40.445312 30.707031 40.699219 L 28.933594 78.847656 C 28.890625 79.804688 28.101562 80.554688 27.148438 80.554688 " fill-opacity="1" fill-rule="nonzero"/><g clip-path="url(#51b991db97)"><path fill="#dddddd" d="M 59.53125 118.039062 C 34.890625 118.039062 12.621094 102.503906 4.121094 79.382812 C 3.78125 78.453125 4.257812 77.425781 5.183594 77.085938 C 6.105469 76.75 7.140625 77.21875 7.480469 78.148438 C 15.464844 99.871094 36.378906 114.457031 59.53125 114.457031 C 81.859375 114.457031 101.910156 101.167969 110.609375 80.605469 C 110.996094 79.695312 112.039062 79.265625 112.953125 79.652344 C 113.863281 80.039062 114.292969 81.089844 113.90625 81.996094 C 104.644531 103.886719 83.300781 118.039062 59.53125 118.039062 " fill-opacity="1" fill-rule="nonzero"/></g><path fill="#dddddd" d="M 7.046875 37.96875 C 6.808594 37.96875 6.5625 37.921875 6.335938 37.820312 C 5.429688 37.421875 5.011719 36.367188 5.40625 35.460938 C 14.796875 13.929688 36.039062 0.0117188 59.53125 0.0117188 C 81.054688 0.0117188 100.882812 11.746094 111.273438 30.625 C 111.742188 31.488281 111.429688 32.574219 110.566406 33.050781 C 109.699219 33.523438 108.613281 33.210938 108.136719 32.347656 C 98.375 14.609375 79.75 3.589844 59.53125 3.589844 C 37.464844 3.589844 17.503906 16.664062 8.6875 36.894531 C 8.394531 37.566406 7.738281 37.96875 7.046875 37.96875 " fill-opacity="1" fill-rule="nonzero"/></svg>